<svg xmlns="http://www.w3.org/2000/svg" width="1200" height="675" viewBox="0 0 1200 675">
  <defs>
    <linearGradient id="bg" x1="0" y1="0" x2="1" y2="1">
      <stop offset="0" stop-color="#0b0c10"/>
      <stop offset="1" stop-color="#12141b"/>
    </linearGradient>
    <filter id="glow" x="-40%" y="-40%" width="180%" height="180%">
      <feGaussianBlur stdDeviation="6" result="blur"/>
      <feMerge>
        <feMergeNode in="blur"/>
        <feMergeNode in="SourceGraphic"/>
      </feMerge>
    </filter>
  </defs>

  <rect x="0" y="0" width="1200" height="675" rx="36" fill="url(#bg)"/>
  <rect x="24" y="24" width="1152" height="627" rx="28" fill="none" stroke="rgba(255,255,255,0.16)" stroke-width="2"/>

  <!-- microphone -->
  <g transform="translate(600 290)" filter="url(#glow)">
    <g fill="none" stroke="#4da3ff" stroke-width="18" stroke-linecap="round" stroke-linejoin="round" opacity="0.95">
      <path d="M0-150c-58 0-106 46-106 104v82c0 58 48 104 106 104s106-46 106-104v-82c0-58-48-104-106-104z"/>
      <path d="M-160 50c0 88 72 160 160 160s160-72 160-160"/>
      <path d="M0 210v70"/>
      <path d="M-88 280h176"/>
    </g>
  </g>

  <text x="600" y="560" text-anchor="middle"
        font-family="system-ui,-apple-system,Segoe UI,Roboto,Helvetica,Arial,sans-serif"
        font-size="54" font-weight="800"
        fill="rgba(233,238,251,0.94)"
        letter-spacing="3">
    DATENPUNK
  </text>
  <text x="600" y="610" text-anchor="middle"
        font-family="system-ui,-apple-system,Segoe UI,Roboto,Helvetica,Arial,sans-serif"
        font-size="26"
        fill="rgba(168,178,199,0.92)">
    No image available
  </text>
</svg>

